<svg width="148" height="133" viewBox="0 0 148 133" fill="none" xmlns="http://www.w3.org/2000/svg">
<g clip-path="url(#clip0_1246_7050)">
<path d="M146.702 50.8619C146.649 50.8619 146.597 50.8457 146.553 50.8153L74.7451 0.751741C74.5266 0.600098 74.2669 0.519057 74.001 0.519511C73.7351 0.519965 73.4757 0.601891 73.2577 0.75428L1.96669 50.8148C1.9103 50.8544 1.84051 50.8699 1.77267 50.858C1.70483 50.8461 1.6445 50.8077 1.60495 50.7512C1.5654 50.6948 1.54987 50.6249 1.56177 50.557C1.57368 50.4891 1.61205 50.4287 1.66843 50.3891L72.9595 0.328593C73.2648 0.11528 73.6279 0.000614898 74.0002 2.46611e-06C74.3724 -0.000609965 74.7359 0.112859 75.0419 0.325166L146.85 50.3886C146.896 50.4202 146.93 50.4656 146.947 50.5179C146.965 50.5703 146.966 50.627 146.949 50.6798C146.933 50.7327 146.9 50.7788 146.855 50.8115C146.811 50.8443 146.757 50.8619 146.702 50.8619L146.702 50.8619Z" fill="#3F3D56"/>
<path d="M6.04053 52.6365L74.0717 2.16235L142.619 56.2279L77.577 94.8276L42.2647 86.7698L6.04053 52.6365Z" fill="#E6E6E6"/>
<path d="M45.2452 118.669H11.6362C11.4298 118.669 11.2254 118.629 11.0347 118.55C10.8439 118.471 10.6706 118.355 10.5246 118.209C10.3786 118.063 10.2627 117.89 10.1837 117.699C10.1047 117.508 10.064 117.304 10.064 117.097C10.064 116.891 10.1047 116.686 10.1837 116.495C10.2627 116.304 10.3786 116.131 10.5246 115.985C10.6706 115.839 10.8439 115.723 11.0347 115.644C11.2254 115.565 11.4298 115.525 11.6362 115.525H45.2452C45.4516 115.525 45.656 115.565 45.8467 115.644C46.0375 115.723 46.2108 115.839 46.3568 115.985C46.5029 116.131 46.6187 116.304 46.6977 116.495C46.7768 116.686 46.8175 116.891 46.8175 117.097C46.8175 117.304 46.7768 117.508 46.6977 117.699C46.6187 117.89 46.5029 118.063 46.3568 118.209C46.2108 118.355 46.0375 118.471 45.8467 118.55C45.656 118.629 45.4516 118.669 45.2452 118.669Z" fill="#3E8512"/>
<path d="M23.6944 111.911H11.6362C11.4298 111.911 11.2254 111.871 11.0347 111.792C10.8439 111.713 10.6706 111.597 10.5246 111.451C10.3786 111.305 10.2627 111.132 10.1837 110.941C10.1047 110.75 10.064 110.546 10.064 110.339C10.064 110.132 10.1047 109.928 10.1837 109.737C10.2627 109.546 10.3786 109.373 10.5246 109.227C10.6706 109.081 10.8439 108.965 11.0347 108.886C11.2254 108.807 11.4298 108.767 11.6362 108.767H23.6944C23.9007 108.767 24.1051 108.807 24.2959 108.886C24.4866 108.965 24.6599 109.081 24.806 109.227C24.952 109.373 25.0678 109.546 25.1469 109.737C25.2259 109.928 25.2666 110.132 25.2666 110.339C25.2666 110.546 25.2259 110.75 25.1469 110.941C25.0678 111.132 24.952 111.305 24.806 111.451C24.6599 111.597 24.4866 111.713 24.2959 111.792C24.1051 111.871 23.9007 111.911 23.6944 111.911Z" fill="#3E8512"/>
<path d="M75.0283 80.7499C74.7728 80.7502 74.5198 80.7006 74.2833 80.6038L32.3264 63.1758V8.6231C32.327 8.14071 32.5186 7.67824 32.8594 7.33713C33.2001 6.99603 33.6621 6.80415 34.144 6.80359H114.635C115.117 6.80415 115.579 6.99603 115.92 7.33713C116.26 7.67824 116.452 8.14071 116.453 8.6231V63.2139L116.374 63.2476L75.7958 80.5953C75.5528 80.6975 75.2919 80.7501 75.0283 80.7499Z" fill="white"/>
<path d="M75.0282 80.8798C74.7559 80.8801 74.486 80.8272 74.2338 80.7242L32.1965 63.2626V8.62306C32.1971 8.10621 32.4025 7.61069 32.7676 7.24522C33.1326 6.87975 33.6276 6.67417 34.1439 6.67358H114.635C115.151 6.67417 115.646 6.87975 116.011 7.24522C116.377 7.61069 116.582 8.10621 116.583 8.62306V63.2997L75.8467 80.7148C75.5876 80.8239 75.3093 80.88 75.0282 80.8798ZM32.7158 62.9153L74.4319 80.2435C74.8209 80.4016 75.2567 80.3989 75.6439 80.2363L116.063 62.9565V8.62306C116.063 8.24404 115.912 7.88068 115.644 7.61267C115.377 7.34466 115.014 7.19389 114.635 7.19345H34.1439C33.7653 7.19389 33.4023 7.34466 33.1346 7.61267C32.8669 7.88068 32.7163 8.24404 32.7158 8.62306L32.7158 62.9153Z" fill="#3F3D56"/>
<path d="M146.182 50.342H146.13L116.323 63.0839L75.5398 80.5174C75.3804 80.5845 75.2094 80.6195 75.0365 80.6204C74.8636 80.6213 74.6923 80.5881 74.5322 80.5226L32.4561 63.0475L1.91618 50.3628L1.86952 50.342H1.81754C1.33567 50.3426 0.873675 50.5344 0.532935 50.8756C0.192195 51.2167 0.000534683 51.6792 0 52.1616V131.18C0.000535369 131.663 0.192196 132.125 0.532935 132.466C0.873675 132.808 1.33567 132.999 1.81754 133H146.182C146.664 132.999 147.126 132.808 147.467 132.466C147.808 132.125 147.999 131.663 148 131.18V52.1616C147.999 51.6792 147.808 51.2167 147.467 50.8756C147.126 50.5344 146.664 50.3426 146.182 50.342ZM147.481 131.18C147.481 131.525 147.344 131.856 147.1 132.099C146.857 132.343 146.527 132.48 146.182 132.48H1.81754C1.47327 132.48 1.14314 132.343 0.899699 132.099C0.656261 131.856 0.519436 131.525 0.519298 131.18V52.1616C0.519769 51.8255 0.649995 51.5026 0.88275 51.2604C1.1155 51.0181 1.43277 50.8754 1.76823 50.8619L32.4561 63.6089L74.3324 81.0035C74.7857 81.1881 75.2937 81.1853 75.7449 80.9957L116.323 63.6479L146.234 50.8619C146.569 50.8764 146.886 51.0195 147.118 51.2616C147.35 51.5037 147.48 51.826 147.481 52.1616V131.18Z" fill="#3F3D56"/>
<path d="M74.6089 65.2808C73.06 65.2837 71.5521 64.7823 70.3128 63.8522L70.236 63.7945L54.057 51.3938C53.3077 50.8191 52.6788 50.1023 52.2063 49.2842C51.7337 48.4662 51.4268 47.563 51.3029 46.6262C51.179 45.6894 51.2407 44.7374 51.4843 43.8245C51.728 42.9115 52.1489 42.0556 52.723 41.3055C53.2971 40.5554 54.0132 39.9258 54.8303 39.4528C55.6474 38.9797 56.5497 38.6724 57.4854 38.5484C58.4212 38.4244 59.3722 38.4861 60.2842 38.7301C61.1961 38.974 62.0511 39.3953 62.8004 39.9701L73.2799 48.0143L98.0447 15.6824C98.6191 14.9325 99.3354 14.3032 100.153 13.8304C100.97 13.3577 101.872 13.0507 102.808 12.927C103.744 12.8033 104.695 12.8654 105.607 13.1097C106.519 13.3539 107.374 13.7756 108.123 14.3507L107.969 14.5599L108.127 14.3537C109.638 15.5163 110.626 17.2314 110.876 19.1227C111.125 21.0141 110.615 22.9273 109.457 24.4425L80.3275 62.4726C79.6538 63.349 78.7875 64.0582 77.7958 64.5452C76.804 65.0322 75.7135 65.2839 74.6089 65.2808Z" fill="#3E8512"/>
</g>
<defs>
<clipPath id="clip0_1246_7050">
<rect width="148" height="133" fill="white"/>
</clipPath>
</defs>
</svg>
